<svg width="230" height="110" xmlns="http://www.w3.org/2000/svg" xmlns:xlink="http://www.w3.org/1999/xlink"><defs><path d="M0 4.994A4.996 4.996 0 0 1 4.99 0h220.02A5 5 0 0 1 230 4.994v100.012a4.996 4.996 0 0 1-4.99 4.994H4.99A5 5 0 0 1 0 105.006V4.994z" id="a"/></defs><g fill="none" fill-rule="evenodd"><mask id="b" fill="#fff"><use xlink:href="#a"/></mask><use fill="#F2F1F0" xlink:href="#a"/><g mask="url(#b)"><path d="M121.582 113.423l-7.773 14.1-33.53-18.51 8.433-12.708 32.87 17.118zM1.452 66.62l5.704-18.796 12.478.282-5.284 18.59-12.899-.076zm109.179 66.667a8.262 8.262 0 0 1-11.07 3.375L71.51 122.23l8.168-12.31 33.607 18.552-2.653 4.814zM20.39 101.96l-9.977-13.47 5.575-19.611 11.645.068a35.956 35.956 0 0 1 14.96 3.39l-6.714 31.594a21.202 21.202 0 0 0-8.886-1.971h-6.602zm57.378 6.906l-8.203 12.363-32.68-16.809 3.447-16.22 37.436 20.666zm58.835 30.082a3.357 3.357 0 0 1-2.602-.28l-18.29-10.096 7.798-14.146 21.325 11.106-6.209 11.755a3.356 3.356 0 0 1-2.022 1.66zm63.392-74.018c-2.099 4.637-6.94 14.797-12.637 26.644l-14.807-16.756a11.765 11.765 0 0 1-2.891-6.796l-1.75-21.577 9.42-1.184a27.259 27.259 0 0 0 8.36-2.47l15.65 19.883c-.563.775-1.016 1.528-1.345 2.256zm-26.217 54.748c-2.539 5.237-4.975 10.255-7.16 14.75l-76.7-39.945 9.94-14.98c21.271 13.394 59.398 33.266 73.92 40.175zm33.284-108.32l-11.319 19.403c-.11.19-.232.373-.348.56l-5.248-6.53a15.45 15.45 0 0 1-3.194-7.144L184.08.275l22.983 11.084zm3.733 42.594c-1.815 1.333-3.474 2.649-4.927 3.932l-14.637-18.596a27.546 27.546 0 0 0 4.282-4.352l15.282 19.016zM178.96 108.98c-1.421 2.937-2.84 5.865-4.233 8.741-9.134-4.342-26.27-13.144-43.015-22.307l7.066-14.508 15.018 8.196c.84.458 1.743.677 2.632.677a5.42 5.42 0 0 0 2.291-.52l.804 2.723a13.365 13.365 0 0 0 5.217 7.196l14.22 9.802zm7.375-15.28a9061.26 9061.26 0 0 1-6.89 14.28l-14.09-9.697a12.277 12.277 0 0 1-4.789-6.608l-.881-2.982a5.496 5.496 0 0 0 1.446-1.624l7.929-13.518a13.85 13.85 0 0 0 1.863 2.705L186.335 93.7zm-26.141-7.18a4.36 4.36 0 0 1-5.878 1.628l-15.062-8.22 3.387-6.953a10.738 10.738 0 0 0-.568-10.485l-7.465-11.862 31.145-3.912 1.742 21.481c.116 1.43.463 2.834 1.008 4.157l-8.31 14.165zM7.484 46.743l1.688-5.561c.962-3.169.372-6.66-1.58-9.336L3.796 26.64l12.383-8.048 3.248 4.18a17.523 17.523 0 0 1 3.006 15.487l-2.492 8.767-12.457-.282zm117.44-29.504l-1.488 15.489a10.857 10.857 0 0 0 1.61 6.787l5.906 9.382-2.214.278a27.244 27.244 0 0 0-16.669 8.546L99.29 44.661a4.695 4.695 0 0 1-.257-6.301l6.752-8.13-.835-.694-6.753 8.13a5.78 5.78 0 0 0 .316 7.755l12.83 13.11a27.8 27.8 0 0 0-.903 1.103L99.22 76.542c-5.956-3.813-10.262-6.96-11.82-8.908-2.798-3.498-9.505-12.442-16.625-22.027l26.682-33.87.201.122 27.266 5.38zm15.764 54.784l-3.342 6.862-27.22-14.856 2.077-3.129c4.141-5.329 10.11-8.726 16.806-9.568l3.22-.405 8.005 12.721a8.577 8.577 0 0 1 .454 8.375zm56.933-40.166l11.045-18.935 22.093 28.653c-6.582 3.616-12.942 7.413-18.197 11.106l-15.725-19.567c.272-.412.536-.83.784-1.257zm16.282 22.493c5.214-3.637 11.59-7.414 18.205-11.024l9.806 12.718v33.161l-28.01-34.855zM3.155 25.761L-7.999 10.46V-3.257c0-2.25 1.368-4.18 3.317-5.005L15.51 17.73 3.155 25.76zm56.98-18.052a9.255 9.255 0 0 1 7.235 2.812l15.557 16.15L69.432 43.8a7948.545 7948.545 0 0 1-19.665-26.634 14.132 14.132 0 0 1-2.694-7.198l-.12-1.435 13.183-.824zM43.602 72.825c.115.058.236.11.35.169l42.824 22.302-8.404 12.663L40.57 87.09l3.032-14.265zm1.183-64.156l.123 1.479a16.298 16.298 0 0 0 3.11 8.305c7.306 9.937 31.615 42.95 37.685 50.539 1.68 2.098 6.17 5.398 12.324 9.349L87.983 93.476 44.956 71.067c-.293-.152-.595-.286-.89-.43l1.078-5.074a7.042 7.042 0 0 1 2.906-4.357l10.902-7.513-.616-.895-10.903 7.514a8.128 8.128 0 0 0-3.352 5.025l-1.022 4.813a38.147 38.147 0 0 0-15.413-3.375l-11.041-.065 5.274-18.552 9.027.204.252.002c2.442 0 4.843-.807 6.79-2.287l9.887-7.52-.657-.865-9.888 7.52a10.081 10.081 0 0 1-6.36 2.063l-8.744-.198 2.338-8.224a19.703 19.703 0 0 0-3.382-17.414l-3.135-4.036 12.018-7.811 14.759-.923zm80.815 24.268l1.467-15.274 17.31 3.415-1.287 7.84a12.489 12.489 0 0 0 .962 7.222l4.79 10.512-15.51 1.948-6.445-10.242a8.668 8.668 0 0 1-1.287-5.421zM182.596-8.69h36.163l-11.147 19.108-23.749-11.455-1.267-7.653zm1.718 49.732a25.1 25.1 0 0 1-7.253 2.064l-27.09 3.403-4.931-10.82a11.407 11.407 0 0 1-.88-6.594l1.283-7.806 27.613 5.449 11.258 14.304zm-83.26 36.662l8.469-12.764 27.346 14.924-7.064 14.504c-10.588-5.822-20.883-11.724-28.751-16.664zM8.132 40.868L.318 66.613l-8.317-.05V34.307l10.883-7.073 3.83 5.252a9.579 9.579 0 0 1 1.418 8.382zm197.606 74.793a13.694 13.694 0 0 0 4.247 3.22l-6.043 14.06-12.57-6.811a7 7 0 0 1-3.636-5.773l-.147-2.935a8.093 8.093 0 0 0-3.493-6.24l-2.841-1.955c2.248-4.646 4.491-9.296 6.642-13.76l17.841 20.194zm-1.267 18.801l26.582 14.402h-36.715l-25.79-13.431c3.609-7.427 7.905-16.282 12.225-25.209l2.71 1.855a6.996 6.996 0 0 1 3.02 5.397l.147 2.935a8.096 8.096 0 0 0 4.204 6.674l12.657 6.857-2.662 6.197.998.428 2.624-6.105zm18.757-18.695c-4.85 3.71-11.819 3.03-15.86-1.545l-18.449-20.88c5.879-12.216 10.905-22.76 13.057-27.515.202-.448.46-.906.764-1.377l32.913 41.816-12.425 9.501zm18.686-23.092v11.004l-34.727-44.12c1.438-1.28 3.099-2.6 4.943-3.946l29.784 37.062zm-76.244 43.709c-2.487 5.116-4.591 9.438-6.072 12.48h-32.526l5.007-10.014 1.399.77a4.438 4.438 0 0 0 3.438.37 4.438 4.438 0 0 0 2.671-2.195l6.21-11.76 19.873 10.349zm1.928 1.004l22.037 11.476h-27.62c1.439-2.954 3.354-6.892 5.583-11.476zm69.4-29.414l4.916 6.246v29.211a5.433 5.433 0 0 1-5.433 5.433h-3.148l-28.431-15.403 6.075-14.139a14.005 14.005 0 0 0 5.17 1.006c2.947 0 5.91-.929 8.401-2.835l12.45-9.52zm-105.87 30.35l-5.27 10.54h-22.211l.081-9.116a10.41 10.41 0 0 0 8.807-5.412l2.652-4.812 15.94 8.8zM6.107 107.012l9.966 41.852h-18.64A5.433 5.433 0 0 1-8 143.431v-39.297H5.61c.11.966.272 1.928.498 2.878zm235.806-52.747l-8.84-11.464a393.05 393.05 0 0 1 8.84-4.64v16.104zM209.258 11.91l12.016-20.6h15.207c1.613 0 3.045.717 4.04 1.833l-8.378 12.122a9.485 9.485 0 0 0 .049 10.817l9.722 13.8v5.816a392.648 392.648 0 0 0-10.19 5.35L209.258 11.91zm23.822 3.546a8.394 8.394 0 0 1-.043-9.573l8.154-11.798c.447.788.723 1.687.723 2.658v31.252l-8.834-12.539zM99.652 5.44L76.445-8.69h28.184l.29 1.815a10.84 10.84 0 0 1-2.184 8.399L99.652 5.44zm7.413-12.659l-.236-1.47h20.585l-1.864 19.407-23.62-4.66 2.513-3.189a13.026 13.026 0 0 0 2.622-10.088zm77.95 26.25L164.223-8.69h16.17l4.416 26.692c.057.346.127.689.204 1.03zM46.862 7.452L45.518-8.69h18.391l31.679 19.287L83.605 25.81 68.15 9.768a10.293 10.293 0 0 0-8.084-3.143l-13.204.825zm80.83 3.69l1.905-19.83h15.572l21.693 27.56-39.17-7.73zm62.196 26.442L153.467-8.69h9.399l23.23 30.974a17.578 17.578 0 0 0 2.359 3.869l5.665 7.05a25.327 25.327 0 0 1-4.23 4.38zM17.34 16.542L-2.264-8.69h45.6l1.357 16.275-15.02.94-12.336 8.017zm.968 132.322L8.222 106.51a21.84 21.84 0 0 1-.42-2.376h19.192c2.999 0 5.994.726 8.66 2.098l32.703 16.822-3.8 5.726a20.179 20.179 0 0 0-3.377 11.196v8.89H18.307zM10.038 89.81l9 12.15H7.64a22.098 22.098 0 0 1 .825-6.61l1.574-5.54zm92.603 49.917l-.08 9.137H63.353v-8.888a18.02 18.02 0 0 1 3.014-9.996l3.933-5.927 28.268 14.542a10.516 10.516 0 0 0 4.073 1.132zM-.34 68.783L-8 94.017v-25.28l7.66.046zm6.713 25.973a24.277 24.277 0 0 0-.906 7.205H-8v-4.203L.793 68.79l12.94.076-7.36 25.89zm-4.13-68.402L-8 33.01V12.303l10.243 14.05z" fill="#E0DCD8"/><path d="M76.717 47.698a3.913 3.913 0 0 1 .103-4.721l20.404-25.76a3.916 3.916 0 0 1 3.732-1.427l9.601 1.656a3.914 3.914 0 0 1-.832 7.765l-3.071-.131a3.913 3.913 0 0 0-3.25 1.502L94.659 37.79a5.705 5.705 0 0 0 .173 7.228l10.497 12.207a3.911 3.911 0 0 1 .185 4.868l-4.938 6.718a3.914 3.914 0 0 1-5.406.881l-2.096-1.476a22.685 22.685 0 0 1-5.323-5.258l-11.034-15.26zm123.547 30.81a2.236 2.236 0 0 1-.294-2.189l1.474-3.655c.64-1.59 2.758-1.897 3.824-.554l25.029 31.549a2.235 2.235 0 0 1-.38 3.154l-3.333 2.59a2.235 2.235 0 0 1-3.151-.412l-23.17-30.483zm-3.61-17.237c.508.653.613 1.534.275 2.288l-1.48 3.301c-.7 1.555-2.812 1.788-3.832.423l-11.883-15.907a2.235 2.235 0 0 1 1.257-3.508l2.977-.733a2.232 2.232 0 0 1 2.297.798l10.388 13.338zM12.561 112.429c-.674-2.788 1.43-5.476 4.298-5.492l7.974-.043a25.94 25.94 0 0 1 12.515 3.028l22.533 11.971a4.446 4.446 0 0 1 1.68 6.291l-.6.958a15.368 15.368 0 0 0-2.35 7.86l-.24 11.826-37.025-.054-8.785-36.345zm110.889 6.16a1.812 1.812 0 0 1 2.43-.773l14.42 7.354a1.813 1.813 0 0 1 .792 2.435l-3.172 6.252a3.358 3.358 0 0 1-4.575 1.444l-12.99-6.915a1.813 1.813 0 0 1-.754-2.44l3.849-7.356z" fill="#B4CE9B"/><path d="M228.65 162.538L89.295 88.684a58.511 58.511 0 0 1-19.988-17.43L5.133-17.923 12.19-23 76.36 66.176a49.784 49.784 0 0 0 17.004 14.828l139.356 73.854-4.07 7.68z" fill="#E5CBA8"/><path d="M229.16 161.578L89.802 87.724a57.44 57.44 0 0 1-19.616-17.106L6.015-18.557l5.291-3.809L75.48 66.81a50.877 50.877 0 0 0 17.376 15.153l139.358 73.854-3.054 5.761z" fill="#FFEBD2"/></g><g transform="translate(105 19)"><path d="M17.925 17.925c4.1-4.1 4.1-10.75 0-14.85s-10.75-4.1-14.85 0-4.1 10.75 0 14.85l7.425 7.258 7.425-7.258z" fill="#1871bc"/><circle fill="#FFF" cx="10.357" cy="10.357" r="5.357"/></g><g transform="translate(173.682 1.98)"><path d="M11.95 11.72a6.772 6.772 0 0 0 0-9.71c-2.734-2.68-7.166-2.68-9.9 0a6.772 6.772 0 0 0 0 9.71L7 16.466l4.95-4.746z" fill="#1871bc"/><ellipse fill="#FFF" cx="6.905" cy="6.772" rx="3.571" ry="3.503"/></g><g transform="translate(149.14 89.401)"><path d="M11.95 11.72a6.772 6.772 0 0 0 0-9.71c-2.734-2.68-7.166-2.68-9.9 0a6.772 6.772 0 0 0 0 9.71L7 16.466l4.95-4.746z" fill="#1871bc"/><ellipse fill="#FFF" cx="6.905" cy="6.772" rx="3.571" ry="3.503"/></g><g transform="translate(153.045 35.04)"><path d="M11.95 11.72a6.772 6.772 0 0 0 0-9.71c-2.734-2.68-7.166-2.68-9.9 0a6.772 6.772 0 0 0 0 9.71L7 16.466l4.95-4.746z" fill="#1871bc"/><ellipse fill="#FFF" cx="6.905" cy="6.772" rx="3.571" ry="3.503"/></g><g transform="translate(52.747 6.393)"><path d="M11.95 11.72a6.772 6.772 0 0 0 0-9.71c-2.734-2.68-7.166-2.68-9.9 0a6.772 6.772 0 0 0 0 9.71L7 16.466l4.95-4.746z" fill="#1871bc"/><ellipse fill="#FFF" cx="6.905" cy="6.772" rx="3.571" ry="3.503"/></g><g transform="translate(22.562 26.432)"><path d="M11.95 11.72a6.772 6.772 0 0 0 0-9.71c-2.734-2.68-7.166-2.68-9.9 0a6.772 6.772 0 0 0 0 9.71L7 16.466l4.95-4.746z" fill="#1871bc"/><ellipse fill="#FFF" cx="6.905" cy="6.772" rx="3.571" ry="3.503"/></g><g transform="translate(42.621 89.401)"><path d="M11.95 11.72a6.772 6.772 0 0 0 0-9.71c-2.734-2.68-7.166-2.68-9.9 0a6.772 6.772 0 0 0 0 9.71L7 16.466l4.95-4.746z" fill="#1871bc"/><ellipse fill="#FFF" cx="6.905" cy="6.772" rx="3.571" ry="3.503"/></g><g transform="translate(211 32.393)"><path d="M11.95 11.72a6.772 6.772 0 0 0 0-9.71c-2.734-2.68-7.166-2.68-9.9 0a6.772 6.772 0 0 0 0 9.71L7 16.466l4.95-4.746z" fill="#1871bc"/><ellipse fill="#FFF" cx="6.905" cy="6.772" rx="3.571" ry="3.503"/></g></g></svg>