<svg xmlns="http://www.w3.org/2000/svg" width="25" height="21.257"><defs><clipPath id="a"><path fill="#fff" d="M21 837.128v-21.256h25v21.256zm12.56-3.078s9.13-4.71 9.52-8.98c.6-6.51-7.18-8.14-9.53-2.75-2.47-5.62-9.99-3.72-9.53 2.79.29 4.04 9.54 8.94 9.54 8.94z"/></clipPath></defs><path fill="" fill-opacity="0" d="M3.02 9.174c.29 4.04 9.54 8.94 9.54 8.94s9.13-4.71 9.52-8.98c.6-6.51-7.18-8.14-9.53-2.75-2.47-5.62-9.99-3.72-9.53 2.79z"/><path stroke-dasharray="0" stroke="#be0000" stroke-miterlimit="50" stroke-width="4" clip-path="url(&quot;#a&quot;)" transform="translate(-21 -815.872)" d="M24.02 825.11c.29 4.04 9.54 8.94 9.54 8.94s9.13-4.71 9.52-8.98c.6-6.51-7.18-8.14-9.53-2.75-2.47-5.62-9.99-3.72-9.53 2.79z" fill="none"/></svg>