<svg width="26" height="26" viewBox="0 0 26 26" xmlns="http://www.w3.org/2000/svg"><g fill="none" fill-rule="evenodd"><g><path d="M12.908 13.918c-.294.054-.598.082-.908.082-2.76 0-5-2.24-5-5s2.24-5 5-5 5 2.24 5 5c0 .605-.108 1.186-.305 1.723-.105.497-.518 1.64-1.695 3.777-1.195 2.17-2.6 4.5-2.6 4.5l.508-5.082zm5.94-3.465c.1-.47.152-.955.152-1.453 0-3.866-3.134-7-7-7S5 5.134 5 9c0 3.517 2.594 6.428 5.972 6.925l-.814 9.456s8.21-11.554 8.69-14.927zM10 9c0-1.105.888-2 2-2 1.105 0 2 .888 2 2 0 1.105-.888 2-2 2-1.105 0-2-.888-2-2z" fill="#4D4D4D"/></g></g></svg>