<?xml version="1.0" standalone="no"?>
<!DOCTYPE svg PUBLIC "-//W3C//DTD SVG 20010904//EN"
 "http://www.w3.org/TR/2001/REC-SVG-20010904/DTD/svg10.dtd">
<svg version="1.0" xmlns="http://www.w3.org/2000/svg"
 width="16.000000pt" height="16.000000pt" viewBox="0 0 16.000000 16.000000"
 preserveAspectRatio="xMidYMid meet">
<metadata>
Created by potrace 1.11, written by Peter Selinger 2001-2013
</metadata>
<g transform="translate(0.000000,16.000000) scale(0.002286,-0.002286)"
fill="#000000" stroke="none">
<path d="M2133 6325 c-24 -7 -43 -11 -43 -8 0 8 -85 -55 -112 -84 -132 -142
-94 -375 78 -473 30 -18 52 -36 49 -41 -4 -5 -14 -50 -25 -101 -94 -467 -333
-928 -770 -1488 -25 -31 -58 -75 -75 -96 -16 -21 -68 -86 -115 -144 -474 -590
-574 -723 -736 -980 -87 -138 -198 -372 -249 -525 -32 -95 -65 -239 -78 -340
-16 -124 -15 -384 2 -465 6 -30 13 -73 16 -95 5 -52 64 -257 103 -360 47 -126
107 -253 186 -394 l32 -56 1812 0 c997 -1 1811 2 1810 5 -2 3 -25 49 -51 103
-151 307 -160 581 -30 867 34 76 132 238 180 300 7 8 32 42 57 75 25 33 49 65
54 70 178 221 320 405 382 496 137 202 228 400 264 576 12 60 12 62 -10 72
-12 5 -35 26 -50 46 -36 48 -40 129 -8 171 36 48 71 68 126 70 160 8 222 -210
81 -285 -19 -10 -22 -17 -17 -49 17 -108 77 -273 146 -401 88 -163 161 -266
413 -581 310 -388 416 -572 459 -799 38 -197 1 -410 -110 -637 -24 -50 -44
-94 -44 -96 0 -4 803 -3 822 1 9 2 89 153 135 256 107 241 155 447 157 675 1
202 -32 372 -110 570 -52 129 -165 340 -237 440 -10 14 -53 75 -96 135 -68 96
-208 281 -244 321 -7 7 -16 19 -22 26 -43 55 -291 364 -295 368 -13 11 -210
281 -259 355 -30 44 -62 92 -72 107 -27 39 -141 244 -168 303 -75 159 -149
368 -166 468 -4 17 -10 50 -15 72 -15 62 -12 72 20 85 53 22 116 104 127 165
11 65 10 85 -8 139 -37 110 -122 170 -239 170 -75 0 -119 -18 -173 -69 -51
-49 -70 -90 -74 -170 -4 -62 -1 -76 24 -125 25 -49 87 -110 124 -122 25 -8
-33 -250 -105 -438 -104 -267 -280 -560 -529 -880 -126 -161 -403 -506 -418
-520 -8 -8 -20 -23 -25 -33 -8 -14 -24 4 -97 110 -47 71 -126 179 -174 242
-80 104 -362 459 -387 488 -13 15 -17 19 -91 113 -68 86 -150 191 -212 270
-24 30 -46 60 -51 65 -4 6 -23 33 -42 60 -19 28 -38 52 -41 55 -12 10 -153
225 -215 328 -76 126 -199 371 -248 498 -54 140 -106 320 -131 454 -2 14 -7
37 -10 51 -5 22 -1 28 34 43 89 40 159 148 165 252 7 112 -45 216 -137 277
-74 49 -169 65 -244 42z"/>
</g>
</svg>
