<?xml version="1.0" encoding="utf-8"?>
<!-- Generator: Adobe Illustrator 19.2.0, SVG Export Plug-In . SVG Version: 6.00 Build 0)  -->
<svg version="1.1" id="Слой_1" xmlns="http://www.w3.org/2000/svg" xmlns:xlink="http://www.w3.org/1999/xlink" x="0px" y="0px"
	 viewBox="0 0 156 65" style="enable-background:new 0 0 156 65;" xml:space="preserve">
<style type="text/css">
	.st0{fill-rule:evenodd;clip-rule:evenodd;fill:#294E7C;}
	.st1{fill-rule:evenodd;clip-rule:evenodd;fill:#5280B8;}
</style>
<g>
	<rect x="1" y="22.5" class="st0" width="6.1" height="26.6"/>
	<path class="st0" d="M26.9,49.1h-5.5v-11c0-2.6-1-3.9-3.1-3.9c-2.2,0-3.3,1.5-3.3,4.5v10.4H9.4V29.9h5.3v2.1
		c1.2-1.8,2.9-2.7,5.1-2.7c2.3,0,4.1,0.6,5.3,1.9c1.2,1.3,1.8,3.1,1.8,5.4V49.1z"/>
	<polygon class="st0" points="37.7,34 35.1,34 35.1,49.1 29.6,49.1 29.6,34 27.2,34 27.2,29.9 29.6,29.9 29.6,23.5 35.1,23.5 
		35.1,29.9 37.7,29.9 	"/>
	<path class="st0" d="M47,29.3c3,0,5.5,0.9,7.4,2.8c2,1.9,2.9,4.3,2.9,7.3c0,3-1,5.4-2.9,7.3c-2,1.9-4.4,2.9-7.4,2.9
		c-2.9,0-5.4-1-7.4-2.9c-2-1.9-3-4.4-3-7.3c0-2.9,1-5.4,3-7.3C41.6,30.3,44.1,29.3,47,29.3L47,29.3z M52,39.5c0-1.5-0.5-2.8-1.4-3.8
		c-0.9-1-2.1-1.5-3.6-1.5c-1.5,0-2.7,0.5-3.6,1.5c-0.9,1-1.4,2.3-1.4,3.8c0,1.5,0.5,2.7,1.4,3.7c0.9,1,2.1,1.5,3.6,1.5
		c1.5,0,2.7-0.5,3.6-1.5C51.5,42.3,52,41,52,39.5z"/>
	<path class="st1" d="M78,49.1h-7l-6.7-9.6v9.6h-6V22.5h9.7c2.9,0,5.2,0.8,7,2.3c1.8,1.6,2.6,3.8,2.6,6.7c0,2.1-0.6,4-1.9,5.5
		c-1.3,1.6-2.9,2.5-5,2.8L78,49.1L78,49.1z M64.2,27.9v7.8h2.7c1.4,0,2.5-0.3,3.5-0.8c0.9-0.5,1.4-1.5,1.4-3.1
		c0-1.3-0.4-2.2-1.1-2.9c-0.7-0.7-1.7-1-3-1H64.2z"/>
	<path class="st1" d="M95.9,49.1h-5.2V47c-1,1.8-2.6,2.7-4.8,2.7c-2.3,0-4.2-0.7-5.5-2.2c-1.3-1.4-1.9-3.3-1.9-5.7V29.9H84v10.8
		c0,2.8,1,4.1,3.1,4.1c2.2,0,3.3-1.5,3.3-4.5V29.9h5.5V49.1z"/>
	<path class="st1" d="M111.4,43.6c0,2-0.8,3.6-2.3,4.7c-1.4,1-3.1,1.5-5.2,1.5c-2,0-3.7-0.6-5.1-1.8c-1.4-1.2-2.1-2.7-2.3-4.7h5.1
		c0.1,1.5,0.9,2.2,2.4,2.2c1.4,0,2.1-0.6,2.1-1.8c0-0.9-0.8-1.6-2.4-2.3c-2.7-1.1-4.2-1.7-4.5-1.9c-1.6-1-2.4-2.3-2.4-4
		c0-1.8,0.7-3.4,2.1-4.6c1.3-1.1,2.9-1.6,4.8-1.6c4.2,0,6.5,2,6.9,5.9h-5.1c0-1.1-0.6-1.7-1.9-1.7c-1.2,0-1.7,0.5-1.7,1.5
		c0,0.6,0.5,1.1,1.6,1.5c0.7,0.3,1.7,0.7,3.1,1.3C109.8,39.1,111.4,41,111.4,43.6z"/>
	<path class="st1" d="M126.7,43.6c0,2-0.8,3.6-2.3,4.7c-1.4,1-3.1,1.5-5.2,1.5c-2,0-3.7-0.6-5.1-1.8c-1.4-1.2-2.1-2.7-2.3-4.7h5.1
		c0.1,1.5,0.9,2.2,2.4,2.2c1.4,0,2.1-0.6,2.1-1.8c0-0.9-0.8-1.6-2.4-2.3c-2.7-1.1-4.2-1.7-4.5-1.9c-1.6-1-2.4-2.3-2.4-4
		c0-1.8,0.7-3.4,2.1-4.6c1.3-1.1,2.9-1.6,4.8-1.6c4.2,0,6.5,2,6.9,5.9h-5.1c0-1.1-0.6-1.7-1.9-1.7c-1.2,0-1.7,0.5-1.7,1.5
		c0,0.6,0.5,1.1,1.6,1.5c0.7,0.3,1.7,0.7,3.1,1.3C125.2,39.1,126.7,41,126.7,43.6z"/>
	<rect x="127.9" y="29.9" class="st1" width="5.5" height="19.2"/>
	<path class="st1" d="M155.7,49.1h-5.5V47c-0.6,0.9-1.4,1.5-2.5,2c-1.1,0.5-2.1,0.7-3.3,0.7c-2.8,0-5.1-1-6.9-3
		c-1.7-1.9-2.6-4.3-2.6-7.2c0-2.9,0.9-5.3,2.7-7.2c1.8-2,4.1-2.9,6.9-2.9c2.6,0,4.5,0.9,5.7,2.6v-2h5.5V49.1L155.7,49.1z
		 M150.3,39.6c0-1.5-0.5-2.8-1.4-3.9c-1-1-2.2-1.6-3.7-1.6c-1.4,0-2.6,0.5-3.5,1.6c-0.9,1-1.4,2.3-1.4,3.7c0,1.4,0.5,2.7,1.4,3.8
		c1,1.1,2.1,1.6,3.6,1.6s2.6-0.5,3.6-1.6C149.8,42.3,150.3,41,150.3,39.6z"/>
</g>
<path class="st0" d="M20.8,62.9v-6.4h-2.4v-0.9h5.9v0.9h-2.4v6.4H20.8L20.8,62.9z M26.8,58.5v-1c-0.1,0-0.1,0-0.2,0s-0.1,0-0.2,0
	c-0.2,0-0.5,0.1-0.7,0.2c-0.2,0.1-0.5,0.3-0.9,0.6v-0.8h-0.9v5.5h0.9v-3.9c0.2-0.2,0.4-0.4,0.7-0.5c0.2-0.1,0.5-0.2,0.7-0.2
	c0.1,0,0.2,0,0.3,0C26.7,58.4,26.7,58.5,26.8,58.5L26.8,58.5L26.8,58.5z M30.4,61.6v-1.5c-0.2,0-0.5,0-0.8,0.1
	c-0.3,0-0.6,0.1-0.8,0.1c-0.2,0.1-0.4,0.2-0.6,0.3C28,60.8,28,61,28,61.3c0,0.3,0.1,0.5,0.3,0.7c0.2,0.2,0.4,0.2,0.8,0.2
	c0.3,0,0.6-0.1,0.8-0.2C30,61.9,30.2,61.8,30.4,61.6L30.4,61.6z M30.4,62.4c-0.1,0.1-0.2,0.1-0.3,0.2c-0.1,0.1-0.2,0.2-0.4,0.2
	c-0.2,0.1-0.3,0.2-0.5,0.2c-0.2,0-0.4,0.1-0.6,0.1c-0.2,0-0.4,0-0.6-0.1c-0.2-0.1-0.4-0.2-0.5-0.4c-0.1-0.2-0.3-0.3-0.4-0.6
	C27,61.8,27,61.6,27,61.4c0-0.4,0.1-0.7,0.2-1c0.2-0.3,0.4-0.5,0.8-0.6c0.3-0.1,0.7-0.2,1.1-0.3c0.4-0.1,0.9-0.1,1.3-0.1v-0.2
	c0-0.2,0-0.4-0.1-0.5c-0.1-0.1-0.2-0.2-0.3-0.3c-0.1-0.1-0.3-0.1-0.4-0.2c-0.2,0-0.3,0-0.5,0c-0.2,0-0.5,0-0.7,0.1
	c-0.3,0.1-0.6,0.2-0.9,0.3h-0.1v-0.9c0.2,0,0.4-0.1,0.7-0.2c0.3-0.1,0.6-0.1,0.9-0.1c0.4,0,0.7,0,0.9,0.1c0.3,0.1,0.5,0.2,0.7,0.3
	c0.2,0.2,0.3,0.3,0.4,0.6c0.1,0.2,0.1,0.5,0.1,0.9v3.7h-0.9V62.4L30.4,62.4z M36.9,57.5l-2.1,5.5H34l-2-5.5h1l1.5,4.2l1.5-4.2H36.9
	L36.9,57.5z M39.9,63.1c-0.9,0-1.5-0.2-2-0.7c-0.5-0.5-0.7-1.2-0.7-2.1c0-0.9,0.2-1.6,0.7-2.1c0.5-0.5,1.1-0.8,1.8-0.8
	c0.3,0,0.6,0,0.9,0.1c0.3,0.1,0.5,0.3,0.7,0.5c0.2,0.2,0.3,0.5,0.5,0.8c0.1,0.3,0.2,0.7,0.2,1.1v0.5H38c0,0.6,0.2,1.1,0.5,1.5
	c0.3,0.3,0.8,0.5,1.3,0.5c0.2,0,0.4,0,0.6-0.1c0.2,0,0.4-0.1,0.5-0.2c0.2-0.1,0.3-0.1,0.4-0.2c0.1-0.1,0.2-0.1,0.3-0.2h0.1v1
	c-0.1,0-0.2,0.1-0.4,0.2c-0.2,0.1-0.3,0.1-0.4,0.1c-0.2,0-0.3,0.1-0.5,0.1C40.3,63,40.1,63.1,39.9,63.1L39.9,63.1z M40.9,59.6
	c0-0.2,0-0.5-0.1-0.6c-0.1-0.2-0.1-0.3-0.2-0.5c-0.1-0.1-0.2-0.2-0.4-0.3c-0.2-0.1-0.4-0.1-0.6-0.1c-0.2,0-0.5,0-0.6,0.1
	c-0.2,0.1-0.3,0.2-0.5,0.3c-0.1,0.1-0.2,0.3-0.3,0.5c-0.1,0.2-0.1,0.4-0.1,0.6H40.9L40.9,59.6z M43.7,62.9h-0.9v-7.6h0.9V62.9
	L43.7,62.9z M50.3,63.1c-0.5,0-1-0.1-1.3-0.2c-0.4-0.1-0.7-0.2-1-0.4v-1.2H48c0.3,0.3,0.7,0.5,1.1,0.7c0.4,0.2,0.8,0.2,1.2,0.2
	c0.5,0,0.9-0.1,1.2-0.3c0.3-0.2,0.4-0.5,0.4-0.9c0-0.3-0.1-0.5-0.2-0.7c-0.1-0.2-0.4-0.3-0.7-0.4c-0.2-0.1-0.4-0.1-0.6-0.2
	c-0.2,0-0.4-0.1-0.7-0.2c-0.3-0.1-0.5-0.1-0.7-0.2c-0.2-0.1-0.4-0.2-0.5-0.4c-0.2-0.2-0.3-0.3-0.3-0.6c-0.1-0.2-0.1-0.5-0.1-0.8
	c0-0.6,0.2-1.1,0.7-1.5c0.5-0.4,1-0.6,1.8-0.6c0.4,0,0.8,0,1.2,0.1c0.4,0.1,0.7,0.2,1,0.3v1.2h-0.1c-0.2-0.2-0.5-0.4-0.9-0.6
	c-0.4-0.2-0.7-0.2-1.1-0.2c-0.5,0-0.8,0.1-1.1,0.3c-0.3,0.2-0.4,0.5-0.4,0.8c0,0.3,0.1,0.6,0.2,0.7c0.2,0.2,0.4,0.3,0.7,0.4
	c0.2,0.1,0.5,0.1,0.8,0.2c0.3,0.1,0.5,0.1,0.7,0.2c0.5,0.2,0.9,0.4,1.1,0.7c0.2,0.3,0.3,0.7,0.3,1.1c0,0.3-0.1,0.6-0.2,0.8
	c-0.1,0.3-0.3,0.5-0.5,0.7c-0.2,0.2-0.5,0.4-0.8,0.5C51.1,63,50.7,63.1,50.3,63.1L50.3,63.1z M58.3,60.1c0,0.9-0.2,1.6-0.7,2.2
	c-0.4,0.5-1,0.8-1.7,0.8c-0.3,0-0.5,0-0.7-0.1c-0.2-0.1-0.4-0.2-0.6-0.3V65h-0.9v-7.5h0.9v0.6c0.2-0.2,0.5-0.4,0.8-0.5
	c0.3-0.1,0.6-0.2,0.9-0.2c0.6,0,1.1,0.2,1.5,0.7C58.2,58.6,58.3,59.2,58.3,60.1L58.3,60.1z M57.4,60.2c0-0.6-0.1-1.1-0.3-1.4
	c-0.2-0.3-0.5-0.5-1-0.5c-0.3,0-0.5,0.1-0.8,0.2c-0.2,0.1-0.5,0.3-0.7,0.4v3.1c0.2,0.1,0.4,0.2,0.6,0.2c0.2,0,0.4,0.1,0.6,0.1
	c0.5,0,0.8-0.2,1.1-0.5C57.3,61.3,57.4,60.8,57.4,60.2L57.4,60.2z M61.7,63.1c-0.9,0-1.5-0.2-2-0.7c-0.5-0.5-0.7-1.2-0.7-2.1
	c0-0.9,0.2-1.6,0.7-2.1c0.5-0.5,1.1-0.8,1.8-0.8c0.3,0,0.6,0,0.9,0.1c0.3,0.1,0.5,0.3,0.7,0.5c0.2,0.2,0.3,0.5,0.5,0.8
	c0.1,0.3,0.2,0.7,0.2,1.1v0.5h-3.8c0,0.6,0.2,1.1,0.5,1.5c0.3,0.3,0.8,0.5,1.3,0.5c0.2,0,0.4,0,0.6-0.1c0.2,0,0.4-0.1,0.5-0.2
	c0.2-0.1,0.3-0.1,0.4-0.2c0.1-0.1,0.2-0.1,0.3-0.2h0.1v1c-0.1,0-0.2,0.1-0.4,0.2c-0.2,0.1-0.3,0.1-0.4,0.1c-0.2,0-0.3,0.1-0.5,0.1
	C62.1,63,61.9,63.1,61.7,63.1L61.7,63.1z M62.7,59.6c0-0.2,0-0.5-0.1-0.6c-0.1-0.2-0.1-0.3-0.2-0.5c-0.1-0.1-0.2-0.2-0.4-0.3
	c-0.2-0.1-0.4-0.1-0.6-0.1c-0.2,0-0.5,0-0.6,0.1c-0.2,0.1-0.3,0.2-0.5,0.3C60.1,58.7,60,58.8,60,59c-0.1,0.2-0.1,0.4-0.1,0.6H62.7
	L62.7,59.6z M66.7,63.1c-0.4,0-0.7-0.1-1-0.2c-0.3-0.1-0.6-0.3-0.8-0.5c-0.2-0.2-0.4-0.5-0.5-0.9c-0.1-0.4-0.2-0.8-0.2-1.3
	c0-0.5,0.1-0.9,0.2-1.2c0.1-0.3,0.3-0.6,0.5-0.9c0.2-0.2,0.5-0.4,0.8-0.5c0.3-0.1,0.7-0.2,1-0.2c0.3,0,0.6,0,0.9,0.1
	c0.3,0.1,0.5,0.2,0.7,0.3v1h-0.1c-0.1-0.1-0.2-0.1-0.3-0.2c-0.1-0.1-0.2-0.1-0.4-0.2c-0.1-0.1-0.3-0.1-0.5-0.2
	c-0.2,0-0.3-0.1-0.5-0.1c-0.5,0-0.9,0.2-1.1,0.5c-0.3,0.4-0.4,0.9-0.4,1.5c0,0.6,0.1,1.1,0.4,1.5c0.3,0.4,0.7,0.5,1.2,0.5
	c0.3,0,0.6-0.1,0.9-0.2c0.3-0.1,0.5-0.3,0.7-0.5h0.1v1c-0.1,0-0.2,0.1-0.3,0.2c-0.1,0.1-0.3,0.1-0.4,0.1c-0.2,0-0.3,0.1-0.4,0.1
	C67.1,63,66.9,63.1,66.7,63.1L66.7,63.1z M70.1,62.9h-0.9v-5.5h0.9V62.9L70.1,62.9z M70.2,56.6h-1.1v-1h1.1V56.6L70.2,56.6z
	 M74.5,61.6v-1.5c-0.2,0-0.5,0-0.8,0.1c-0.3,0-0.6,0.1-0.8,0.1c-0.2,0.1-0.4,0.2-0.6,0.3C72.1,60.8,72,61,72,61.3
	c0,0.3,0.1,0.5,0.3,0.7c0.2,0.2,0.4,0.2,0.8,0.2c0.3,0,0.6-0.1,0.8-0.2C74.1,61.9,74.3,61.8,74.5,61.6L74.5,61.6z M74.5,62.4
	c-0.1,0.1-0.2,0.1-0.3,0.2c-0.1,0.1-0.2,0.2-0.4,0.2c-0.2,0.1-0.3,0.2-0.5,0.2c-0.2,0-0.4,0.1-0.6,0.1c-0.2,0-0.4,0-0.6-0.1
	c-0.2-0.1-0.4-0.2-0.5-0.4c-0.1-0.2-0.3-0.3-0.4-0.6c-0.1-0.2-0.1-0.5-0.1-0.7c0-0.4,0.1-0.7,0.2-1c0.2-0.3,0.4-0.5,0.8-0.6
	c0.3-0.1,0.7-0.2,1.1-0.3c0.4-0.1,0.9-0.1,1.3-0.1v-0.2c0-0.2,0-0.4-0.1-0.5c-0.1-0.1-0.2-0.2-0.3-0.3c-0.1-0.1-0.3-0.1-0.4-0.2
	c-0.2,0-0.3,0-0.5,0c-0.2,0-0.5,0-0.7,0.1c-0.3,0.1-0.6,0.2-0.9,0.3h-0.1v-0.9c0.2,0,0.4-0.1,0.7-0.2c0.3-0.1,0.6-0.1,0.9-0.1
	c0.4,0,0.7,0,0.9,0.1c0.3,0.1,0.5,0.2,0.7,0.3c0.2,0.2,0.3,0.3,0.4,0.6c0.1,0.2,0.1,0.5,0.1,0.9v3.7h-0.9V62.4L74.5,62.4z
	 M77.7,62.9h-0.9v-7.6h0.9V62.9L77.7,62.9z M80,62.9H79v-5.5H80V62.9L80,62.9z M80,56.6H79v-1H80V56.6L80,56.6z M82.8,63.1
	c-0.4,0-0.7,0-1-0.1c-0.3-0.1-0.6-0.2-0.8-0.3v-1h0c0.1,0.1,0.2,0.1,0.3,0.2c0.1,0.1,0.2,0.2,0.4,0.2c0.2,0.1,0.3,0.1,0.5,0.2
	c0.2,0.1,0.4,0.1,0.6,0.1c0.1,0,0.3,0,0.5-0.1c0.2,0,0.3-0.1,0.4-0.1c0.1-0.1,0.2-0.2,0.2-0.2c0.1-0.1,0.1-0.2,0.1-0.4
	c0-0.2-0.1-0.4-0.2-0.5c-0.1-0.1-0.3-0.2-0.6-0.3c-0.1,0-0.3-0.1-0.5-0.1c-0.2,0-0.4-0.1-0.5-0.1c-0.4-0.1-0.7-0.3-0.9-0.6
	C81.1,59.7,81,59.4,81,59c0-0.5,0.2-0.9,0.6-1.2c0.4-0.3,0.9-0.5,1.5-0.5c0.3,0,0.6,0,0.9,0.1c0.3,0.1,0.6,0.2,0.8,0.3v1h0
	c-0.2-0.2-0.5-0.3-0.8-0.4c-0.3-0.1-0.6-0.2-0.9-0.2c-0.3,0-0.6,0.1-0.8,0.2c-0.2,0.1-0.3,0.3-0.3,0.6c0,0.2,0.1,0.4,0.2,0.5
	c0.1,0.1,0.3,0.2,0.6,0.3c0.1,0,0.3,0.1,0.5,0.1c0.2,0,0.3,0.1,0.5,0.1c0.4,0.1,0.7,0.3,0.9,0.5c0.2,0.2,0.3,0.6,0.3,1
	c0,0.2,0,0.5-0.1,0.7c-0.1,0.2-0.2,0.4-0.4,0.5c-0.2,0.2-0.4,0.3-0.7,0.4C83.5,63,83.1,63.1,82.8,63.1L82.8,63.1z M87.4,63
	c-0.5,0-0.9-0.1-1.2-0.4c-0.3-0.3-0.4-0.7-0.4-1.3v-3h-0.6v-0.8h0.6v-1.6h0.9v1.6h1.7v0.8h-1.7v2.6c0,0.3,0,0.5,0,0.6
	c0,0.2,0,0.3,0.1,0.4c0.1,0.1,0.1,0.2,0.3,0.3c0.1,0.1,0.3,0.1,0.5,0.1c0.2,0,0.3,0,0.4-0.1c0.1,0,0.2-0.1,0.3-0.1h0.1v0.8
	c-0.2,0-0.3,0.1-0.5,0.1C87.7,63,87.6,63,87.4,63L87.4,63z M93.7,63.1c-0.4,0-0.7,0-1-0.1c-0.3-0.1-0.6-0.2-0.8-0.3v-1h0
	c0.1,0.1,0.2,0.1,0.3,0.2c0.1,0.1,0.2,0.2,0.4,0.2c0.2,0.1,0.3,0.1,0.5,0.2c0.2,0.1,0.4,0.1,0.6,0.1c0.1,0,0.3,0,0.5-0.1
	c0.2,0,0.3-0.1,0.4-0.1c0.1-0.1,0.2-0.2,0.2-0.2c0.1-0.1,0.1-0.2,0.1-0.4c0-0.2-0.1-0.4-0.2-0.5c-0.1-0.1-0.3-0.2-0.6-0.3
	c-0.1,0-0.3-0.1-0.5-0.1c-0.2,0-0.4-0.1-0.5-0.1c-0.4-0.1-0.7-0.3-0.9-0.6c-0.2-0.3-0.3-0.6-0.3-0.9c0-0.5,0.2-0.9,0.6-1.2
	c0.4-0.3,0.9-0.5,1.5-0.5c0.3,0,0.6,0,0.9,0.1c0.3,0.1,0.6,0.2,0.8,0.3v1h0c-0.2-0.2-0.5-0.3-0.8-0.4c-0.3-0.1-0.6-0.2-0.9-0.2
	c-0.3,0-0.6,0.1-0.8,0.2c-0.2,0.1-0.3,0.3-0.3,0.6c0,0.2,0.1,0.4,0.2,0.5c0.1,0.1,0.3,0.2,0.6,0.3c0.1,0,0.3,0.1,0.5,0.1
	c0.2,0,0.3,0.1,0.5,0.1c0.4,0.1,0.7,0.3,0.9,0.5c0.2,0.2,0.3,0.6,0.3,1c0,0.2,0,0.5-0.1,0.7c-0.1,0.2-0.2,0.4-0.4,0.5
	c-0.2,0.2-0.4,0.3-0.7,0.4C94.4,63,94.1,63.1,93.7,63.1L93.7,63.1z M97.7,62.9h-0.9v-5.5h0.9V62.9L97.7,62.9z M97.7,56.6h-1.1v-1
	h1.1V56.6L97.7,56.6z M103.3,62.9h-0.9v-3.1c0-0.3,0-0.5,0-0.7c0-0.2-0.1-0.4-0.1-0.5c-0.1-0.1-0.2-0.2-0.3-0.3
	c-0.1-0.1-0.3-0.1-0.5-0.1c-0.2,0-0.5,0.1-0.7,0.2c-0.2,0.1-0.5,0.3-0.7,0.5v4.1H99v-5.5h0.9v0.6c0.3-0.2,0.5-0.4,0.8-0.6
	c0.3-0.1,0.6-0.2,0.8-0.2c0.5,0,1,0.2,1.3,0.5c0.3,0.4,0.5,0.9,0.5,1.5V62.9L103.3,62.9z M106.8,63.1c-0.4,0-0.7-0.1-1-0.2
	c-0.3-0.1-0.6-0.3-0.8-0.5c-0.2-0.2-0.4-0.5-0.5-0.9c-0.1-0.4-0.2-0.8-0.2-1.3c0-0.5,0.1-0.9,0.2-1.2c0.1-0.3,0.3-0.6,0.5-0.9
	c0.2-0.2,0.5-0.4,0.8-0.5c0.3-0.1,0.7-0.2,1-0.2c0.3,0,0.6,0,0.9,0.1c0.3,0.1,0.5,0.2,0.7,0.3v1h-0.1c-0.1-0.1-0.2-0.1-0.3-0.2
	c-0.1-0.1-0.2-0.1-0.4-0.2c-0.1-0.1-0.3-0.1-0.5-0.2c-0.2,0-0.3-0.1-0.5-0.1c-0.5,0-0.9,0.2-1.1,0.5c-0.3,0.4-0.4,0.9-0.4,1.5
	c0,0.6,0.1,1.1,0.4,1.5c0.3,0.4,0.7,0.5,1.2,0.5c0.3,0,0.6-0.1,0.9-0.2c0.3-0.1,0.5-0.3,0.7-0.5h0.1v1c-0.1,0-0.2,0.1-0.3,0.2
	c-0.1,0.1-0.3,0.1-0.4,0.1c-0.2,0-0.3,0.1-0.4,0.1C107.1,63,106.9,63.1,106.8,63.1L106.8,63.1z M111.6,63.1c-0.9,0-1.5-0.2-2-0.7
	c-0.5-0.5-0.7-1.2-0.7-2.1c0-0.9,0.2-1.6,0.7-2.1c0.5-0.5,1.1-0.8,1.8-0.8c0.3,0,0.6,0,0.9,0.1c0.3,0.1,0.5,0.3,0.7,0.5
	c0.2,0.2,0.3,0.5,0.5,0.8c0.1,0.3,0.2,0.7,0.2,1.1v0.5h-3.8c0,0.6,0.2,1.1,0.5,1.5c0.3,0.3,0.8,0.5,1.3,0.5c0.2,0,0.4,0,0.6-0.1
	c0.2,0,0.4-0.1,0.5-0.2c0.2-0.1,0.3-0.1,0.4-0.2c0.1-0.1,0.2-0.1,0.3-0.2h0.1v1c-0.1,0-0.2,0.1-0.4,0.2c-0.2,0.1-0.3,0.1-0.4,0.1
	c-0.2,0-0.3,0.1-0.5,0.1C112,63,111.8,63.1,111.6,63.1L111.6,63.1z M112.7,59.6c0-0.2,0-0.5-0.1-0.6c-0.1-0.2-0.1-0.3-0.2-0.5
	c-0.1-0.1-0.2-0.2-0.4-0.3c-0.2-0.1-0.4-0.1-0.6-0.1c-0.2,0-0.5,0-0.6,0.1c-0.2,0.1-0.3,0.2-0.5,0.3c-0.1,0.1-0.2,0.3-0.3,0.5
	c-0.1,0.2-0.1,0.4-0.1,0.6H112.7L112.7,59.6z M121.6,62.9H118v-0.7h1.3v-4.9H118v-0.7c0.5,0,0.9-0.1,1.1-0.2
	c0.2-0.1,0.4-0.4,0.4-0.8h0.8v6.6h1.3V62.9L121.6,62.9z M126.5,58.6c0-0.5,0-0.9-0.1-1.2c-0.1-0.3-0.2-0.5-0.4-0.7
	c-0.1-0.2-0.3-0.3-0.4-0.3c-0.1-0.1-0.3-0.1-0.5-0.1c-0.4,0-0.7,0.1-1,0.4c-0.2,0.3-0.4,0.7-0.4,1.2c0,0.3,0,0.6,0.1,0.8
	c0.1,0.2,0.2,0.4,0.4,0.5c0.1,0.1,0.3,0.2,0.4,0.2c0.2,0,0.3,0.1,0.5,0.1c0.2,0,0.4,0,0.7-0.1c0.2-0.1,0.5-0.2,0.6-0.3
	c0,0,0-0.1,0-0.2C126.5,58.8,126.5,58.7,126.5,58.6L126.5,58.6z M122.7,58c0-0.4,0.1-0.7,0.2-1c0.1-0.3,0.3-0.6,0.5-0.8
	c0.2-0.2,0.5-0.4,0.7-0.5c0.3-0.1,0.6-0.2,0.9-0.2c0.3,0,0.6,0.1,0.9,0.2c0.3,0.1,0.5,0.3,0.7,0.5c0.3,0.3,0.4,0.6,0.6,1.1
	c0.1,0.4,0.2,1,0.2,1.6c0,0.6-0.1,1.2-0.2,1.7c-0.1,0.5-0.3,1-0.6,1.3c-0.3,0.4-0.6,0.7-1,0.9c-0.4,0.2-0.9,0.3-1.5,0.3
	c-0.1,0-0.3,0-0.4,0c-0.1,0-0.3,0-0.4-0.1V62h0c0.1,0,0.2,0.1,0.4,0.1c0.2,0,0.3,0.1,0.5,0.1c0.6,0,1.1-0.2,1.5-0.6
	c0.4-0.4,0.6-1,0.6-1.8c-0.3,0.2-0.5,0.3-0.7,0.4c-0.2,0.1-0.5,0.1-0.8,0.1c-0.3,0-0.5,0-0.7-0.1c-0.2-0.1-0.4-0.2-0.7-0.3
	c-0.3-0.2-0.5-0.5-0.6-0.8C122.8,58.8,122.7,58.5,122.7,58L122.7,58z M130.4,56.3c-0.2,0-0.4,0-0.5,0.1c-0.2,0-0.3,0.1-0.5,0.2
	c-0.2,0.1-0.3,0.1-0.4,0.2c-0.1,0.1-0.2,0.1-0.3,0.2h-0.1v-1c0.2-0.1,0.5-0.2,0.9-0.3c0.4-0.1,0.7-0.1,1-0.1c0.3,0,0.6,0,0.9,0.1
	c0.2,0.1,0.5,0.2,0.7,0.3c0.2,0.2,0.4,0.3,0.5,0.6c0.1,0.2,0.2,0.5,0.2,0.8c0,0.4-0.1,0.8-0.4,1.1c-0.3,0.3-0.6,0.5-0.9,0.6V59
	c0.2,0,0.3,0.1,0.5,0.2c0.2,0.1,0.3,0.2,0.5,0.3c0.2,0.1,0.3,0.3,0.4,0.5c0.1,0.2,0.1,0.5,0.1,0.8c0,0.3-0.1,0.6-0.2,0.9
	c-0.1,0.3-0.3,0.5-0.5,0.7c-0.2,0.2-0.5,0.4-0.8,0.5c-0.3,0.1-0.6,0.2-1,0.2c-0.4,0-0.7,0-1.1-0.1c-0.4-0.1-0.7-0.2-0.9-0.3v-1h0.1
	c0.2,0.2,0.5,0.3,0.8,0.4c0.3,0.1,0.7,0.2,1,0.2c0.2,0,0.4,0,0.6-0.1c0.2-0.1,0.4-0.2,0.5-0.3c0.1-0.1,0.2-0.3,0.3-0.5
	c0.1-0.2,0.1-0.4,0.1-0.7c0-0.3,0-0.5-0.1-0.7c-0.1-0.2-0.2-0.3-0.3-0.4c-0.1-0.1-0.3-0.2-0.5-0.2c-0.2,0-0.4-0.1-0.6-0.1h-0.4v-0.8
	h0.3c0.4,0,0.8-0.1,1.1-0.3c0.3-0.2,0.4-0.5,0.4-0.9c0-0.2,0-0.3-0.1-0.5c-0.1-0.1-0.2-0.2-0.3-0.3c-0.1-0.1-0.3-0.1-0.4-0.2
	C130.7,56.4,130.5,56.3,130.4,56.3L130.4,56.3z M138.4,62.9h-4.5v-1c0.3-0.3,0.6-0.6,0.9-0.9c0.3-0.3,0.6-0.6,0.8-0.9
	c0.6-0.6,0.9-1.1,1.1-1.5c0.2-0.4,0.3-0.7,0.3-1.1c0-0.2,0-0.4-0.1-0.5c-0.1-0.2-0.2-0.3-0.3-0.4c-0.1-0.1-0.2-0.2-0.4-0.2
	c-0.2,0-0.3-0.1-0.5-0.1c-0.2,0-0.3,0-0.5,0.1c-0.2,0-0.3,0.1-0.5,0.2c-0.1,0.1-0.3,0.1-0.4,0.2c-0.1,0.1-0.2,0.1-0.3,0.2H134v-1
	c0.2-0.1,0.5-0.2,0.8-0.3c0.4-0.1,0.7-0.1,1-0.1c0.7,0,1.2,0.2,1.6,0.5c0.4,0.4,0.6,0.8,0.6,1.5c0,0.3,0,0.5-0.1,0.8
	c-0.1,0.2-0.2,0.5-0.3,0.7c-0.1,0.2-0.3,0.4-0.4,0.6c-0.2,0.2-0.3,0.4-0.5,0.6c-0.3,0.3-0.6,0.7-1,1c-0.4,0.4-0.7,0.6-0.9,0.8h3.6
	V62.9z"/>
<path class="st0" d="M131.3,7.8c-0.6,3.6-3.1,6.3-5.2,8.9c-2.6-4.1-7.1-7.7-8-13.1c0.6-0.2,1-0.7,1-1.4c0-0.8-0.7-1.5-1.5-1.5
	c-0.8,0-1.5,0.7-1.5,1.5c0,0.6,0.4,1.2,1,1.4c-1.5,9.5-14.3,13.4-8.1,23.9h15.6h1.5h0c-3.1-5.3,3.3-7.3,4.1-12.1
	c-0.3-0.1-0.5-0.4-0.5-0.7c0-0.4,0.3-0.7,0.7-0.7c0.4,0,0.7,0.3,0.7,0.7c0,0.3-0.2,0.6-0.5,0.7c0.8,4.8,7.2,6.8,4.1,12.1h3.9
	c5.1-8.7-5.4-11.9-6.7-19.7c0.5-0.2,0.8-0.6,0.8-1.1c0-0.7-0.5-1.2-1.2-1.2c-0.7,0-1.2,0.5-1.2,1.2C130.5,7.2,130.8,7.6,131.3,7.8z"
	/>
</svg>
