<?xml version="1.0" encoding="iso-8859-1"?>
<!-- Generator: Adobe Illustrator 18.1.1, SVG Export Plug-In . SVG Version: 6.00 Build 0)  -->
<svg version="1.1" id="content-zoo" xmlns="http://www.w3.org/2000/svg" xmlns:xlink="http://www.w3.org/1999/xlink" x="0px"
	 y="0px" viewBox="94 97 800 600" style="enable-background:new 94 97 800 600;" xml:space="preserve">
<rect x="94" y="97" style="fill:#2190D7;" width="800" height="600"/>
<g>
	<path style="fill:#FFFFFF;" d="M574.283,298.469c-22.009,0-40.792,13.778-48.174,33.161c-7.383-19.383-26.18-33.161-48.175-33.161
		c-28.459,0-51.529,23.04-51.529,51.454c0,7.833,1.751,15.252,4.891,21.887h-24.12l29.994-70.269h-74.986v27.263h31.918
		l-29.61,69.501h72.678v-16.897c9.43,12.151,24.181,19.969,40.765,19.969c21.996,0,40.793-13.777,48.175-33.161
		c7.386,19.384,26.166,33.161,48.175,33.161c28.458,0,51.533-23.04,51.533-51.454C625.816,321.509,602.742,298.469,574.283,298.469z
		 M477.934,372.196c-12.322,0-22.304-9.969-22.304-22.271s9.984-22.271,22.304-22.271s22.302,9.969,22.302,22.271
		C500.235,362.227,490.254,372.196,477.934,372.196z M574.283,372.196c-12.321,0-22.304-9.969-22.304-22.271
		s9.985-22.271,22.304-22.271c12.306,0,22.304,9.969,22.304,22.271C596.59,362.227,586.59,372.196,574.283,372.196z"/>
	<g>
		<path style="fill:#3D3D3D;" d="M445.659,440.134c0,3.32-0.674,6.294-2.023,8.922c-1.349,2.629-3.164,4.894-5.446,6.795
			c-2.282,1.902-4.875,3.407-7.78,4.513c-2.905,1.106-5.913,1.799-9.025,2.074c-1.522,0.14-3.148,0.174-4.875,0.104
			c-1.73-0.068-3.563-0.38-5.499-0.934c0.76-1.798,1.919-3.303,3.476-4.513c1.556-1.21,3.439-1.815,5.654-1.815
			c1.797,0,3.595-0.38,5.394-1.142c1.798-0.76,3.406-1.815,4.824-3.164c1.417-1.349,2.575-2.938,3.475-4.771
			c0.898-1.832,1.349-3.854,1.349-6.069c0-2.143-0.451-4.149-1.349-6.017c-0.9-1.867-2.11-3.491-3.631-4.876
			c-1.522-1.383-3.304-2.454-5.343-3.216c-2.041-0.76-4.237-1.141-6.587-1.141c-3.874,0-7.676,0.207-11.411,0.622v68.571
			l-9.855-0.207v-74.385c3.872-0.758,7.434-1.293,10.685-1.604c3.25-0.311,6.777-0.467,10.581-0.467
			c4.15,0,7.918,0.599,11.308,1.791c3.388,1.193,6.276,2.819,8.662,4.876c2.386,2.057,4.218,4.469,5.498,7.234
			C445.019,434.083,445.659,437.022,445.659,440.134z"/>
		<path style="fill:#3D3D3D;" d="M508.835,439.689c0,4.145-1.158,7.788-3.475,10.93c-2.318,3.143-5.274,5.611-8.87,7.407
			l-2.489,0.828l2.074,0.83c2.559,1.729,4.513,3.834,5.861,6.32s2.49,5.23,3.424,8.235c0.934,3.006,1.831,6.183,2.697,9.531
			c0.863,3.349,2.091,6.785,3.683,10.308h-10.374c-1.384-2.973-2.474-6.154-3.268-9.544c-0.796-3.388-1.678-6.64-2.646-9.751
			c-0.97-3.112-2.196-5.878-3.683-8.3c-1.488-2.42-3.579-4.149-6.276-5.187c-0.207,0.069-0.519,0.104-0.934,0.104
			c-1.522,0.14-3.147,0.155-4.876,0.052c-1.729-0.104-3.562-0.396-5.498-0.882c0.761-1.798,1.919-3.284,3.476-4.461
			c1.556-1.175,3.439-1.797,5.653-1.867c1.798-0.067,3.596-0.482,5.395-1.244c1.798-0.761,3.405-1.78,4.824-3.061
			c1.416-1.279,2.575-2.817,3.475-4.616c0.898-1.798,1.349-3.769,1.349-5.913c0-2.075-0.45-3.994-1.349-5.758
			c-0.899-1.764-2.11-3.302-3.631-4.616c-1.521-1.313-3.303-2.351-5.342-3.112c-2.041-0.761-4.237-1.142-6.588-1.142
			c-1.937,0-3.7,0.036-5.29,0.104c-1.592,0.069-3.631,0.347-6.121,0.829v68.364h-9.855v-74.384
			c3.873-0.759,7.433-1.346,10.685-1.761c3.25-0.415,6.777-0.622,10.581-0.622c4.149,0,7.918,0.588,11.308,1.762
			c3.388,1.174,6.276,2.78,8.662,4.817c2.386,2.038,4.218,4.402,5.498,7.097c1.279,2.693,1.919,5.525,1.919,8.495V439.689z"/>
		<path style="fill:#3D3D3D;" d="M522.839,456.369c0-6.63,1.054-12.396,3.164-17.302c2.109-4.903,4.858-8.979,8.247-12.225
			c3.388-3.245,7.141-5.664,11.256-7.252c4.114-1.589,8.212-2.383,12.293-2.383c5.603,0,10.582,1.037,14.938,3.108
			c4.357,2.072,8.022,4.888,10.996,8.443c2.973,3.557,5.222,7.719,6.743,12.484c1.521,4.766,2.282,9.809,2.282,15.125
			c0,6.011-0.934,11.414-2.801,16.214c-1.867,4.802-4.409,8.91-7.625,12.329c-3.216,3.418-6.934,6.043-11.151,7.872
			c-4.22,1.83-8.681,2.746-13.383,2.746c-4.842,0-9.388-0.897-13.642-2.693c-4.253-1.797-7.954-4.369-11.1-7.718
			c-3.148-3.349-5.638-7.441-7.47-12.276C523.755,468.007,522.839,462.516,522.839,456.369z M533.421,456.318
			c0,4.704,0.604,8.991,1.815,12.863c1.209,3.874,2.904,7.21,5.083,10.011s4.754,4.979,7.729,6.536
			c2.973,1.556,6.224,2.334,9.751,2.334c3.665,0,7.003-0.83,10.011-2.49c3.009-1.659,5.566-3.906,7.677-6.743
			c2.109-2.835,3.751-6.188,4.928-10.062c1.175-3.872,1.764-8.021,1.764-12.448c0-4.84-0.641-9.215-1.919-13.123
			c-1.281-3.906-3.026-7.244-5.239-10.011c-2.214-2.766-4.808-4.876-7.78-6.328c-2.975-1.452-6.12-2.179-9.44-2.179
			c-3.319,0-6.467,0.727-9.44,2.179s-5.567,3.562-7.78,6.328c-2.214,2.767-3.96,6.104-5.238,10.011
			C534.06,447.103,533.421,451.478,533.421,456.318z"/>
	</g>
</g>
</svg>
